<?xml version="1.0" encoding="UTF-8" standalone="no"?>
<svg
   xmlns:dc="http://purl.org/dc/elements/1.1/"
   xmlns:cc="http://creativecommons.org/ns#"
   xmlns:rdf="http://www.w3.org/1999/02/22-rdf-syntax-ns#"
   xmlns:svg="http://www.w3.org/2000/svg"
   xmlns="http://www.w3.org/2000/svg"
   xmlns:xlink="http://www.w3.org/1999/xlink"
   xmlns:sodipodi="http://sodipodi.sourceforge.net/DTD/sodipodi-0.dtd"
   xmlns:inkscape="http://www.inkscape.org/namespaces/inkscape"
   width="20"
   height="10"
   viewBox="0 0 5.2916665 2.6458334"
   version="1.1"
   id="svg843"
   inkscape:version="1.0 (4035a4fb49, 2020-05-01)"
   sodipodi:docname="splash.svg"
   inkscape:export-filename="/home/victor/Documents/Apps/theSlate/readme/splash.png"
   inkscape:export-xdpi="9600"
   inkscape:export-ydpi="9600">
  <defs
     id="defs837">
    <linearGradient
       inkscape:collect="always"
       id="linearGradient1686">
      <stop
         style="stop-color:#ff6464;stop-opacity:1"
         offset="0"
         id="stop1682" />
      <stop
         style="stop-color:#ffc8c8;stop-opacity:1"
         offset="1"
         id="stop1684" />
    </linearGradient>
    <linearGradient
       inkscape:collect="always"
       xlink:href="#linearGradient9085"
       id="linearGradient2317"
       x1="0"
       y1="296.99997"
       x2="5.2916665"
       y2="294.35416"
       gradientUnits="userSpaceOnUse" />
    <linearGradient
       id="linearGradient9085"
       inkscape:collect="always">
      <stop
         id="stop9081"
         offset="0"
         style="stop-color:#6464ff;stop-opacity:1" />
      <stop
         id="stop9083"
         offset="1"
         style="stop-color:#c8c8ff;stop-opacity:1" />
    </linearGradient>
    <linearGradient
       gradientTransform="matrix(0.10000001,0,0,0.80001203,0.26458333,58.867237)"
       inkscape:collect="always"
       xlink:href="#linearGradient9085"
       id="linearGradient2317-3-2"
       x1="0"
       y1="296.99997"
       x2="5.2916665"
       y2="294.35419"
       gradientUnits="userSpaceOnUse" />
    <linearGradient
       inkscape:collect="always"
       xlink:href="#linearGradient9209"
       id="linearGradient2515"
       x1="0.52916664"
       y1="296.47083"
       x2="0.52916664"
       y2="294.35416"
       gradientUnits="userSpaceOnUse" />
    <linearGradient
       id="linearGradient9209"
       inkscape:collect="always">
      <stop
         id="stop9205"
         offset="0"
         style="stop-color:#0064d9;stop-opacity:1" />
      <stop
         id="stop9207"
         offset="1"
         style="stop-color:#22c8ff;stop-opacity:1" />
    </linearGradient>
    <linearGradient
       gradientTransform="translate(0,1.5691644e-5)"
       inkscape:collect="always"
       xlink:href="#linearGradient1686"
       id="linearGradient2515-7"
       x1="0.52916664"
       y1="296.47083"
       x2="0.52916664"
       y2="294.35416"
       gradientUnits="userSpaceOnUse" />
    <linearGradient
       inkscape:collect="always"
       xlink:href="#linearGradient1686"
       id="linearGradient822-63"
       x1="4.6862917"
       y1="35.595917"
       x2="27.313709"
       y2="-3.5959179"
       gradientUnits="userSpaceOnUse"
       gradientTransform="matrix(0.02073549,0,0,0.02073549,78.140851,284.60914)" />
  </defs>
  <sodipodi:namedview
     id="base"
     pagecolor="#ffffff"
     bordercolor="#666666"
     borderopacity="1.0"
     inkscape:pageopacity="0.0"
     inkscape:pageshadow="2"
     inkscape:zoom="22.627417"
     inkscape:cx="6.9034616"
     inkscape:cy="1.8281588"
     inkscape:document-units="mm"
     inkscape:current-layer="layer1"
     showgrid="true"
     units="px"
     showguides="true"
     inkscape:window-width="1920"
     inkscape:window-height="1044"
     inkscape:window-x="0"
     inkscape:window-y="0"
     inkscape:window-maximized="1"
     inkscape:document-rotation="0">
    <inkscape:grid
       type="xygrid"
       id="grid1391"
       enabled="false" />
    <inkscape:grid
       type="xygrid"
       id="grid1393"
       originy="0.13229167"
       originx="0.13229167"
       dotted="true"
       empspacing="1"
       enabled="false" />
  </sodipodi:namedview>
  <metadata
     id="metadata840">
    <rdf:RDF>
      <cc:Work
         rdf:about="">
        <dc:format>image/svg+xml</dc:format>
        <dc:type
           rdf:resource="http://purl.org/dc/dcmitype/StillImage" />
        <dc:title></dc:title>
      </cc:Work>
    </rdf:RDF>
  </metadata>
  <g
     inkscape:label="Layer 1"
     inkscape:groupmode="layer"
     id="layer1"
     transform="translate(0,-294.35415)">
    <rect
       style="opacity:1;fill:#ffffff;fill-opacity:1;stroke:none;stroke-width:0.26499999;stroke-linecap:round;stroke-linejoin:round;stroke-miterlimit:4;stroke-dasharray:none;stroke-dashoffset:0;stroke-opacity:1;paint-order:normal"
       id="rect2664-1"
       width="5.2916665"
       height="2.6458333"
       x="0"
       y="294.35416" />
    <circle
       style="opacity:1;fill:url(#linearGradient822-63);fill-opacity:1;stroke:none;stroke-width:0.0207355;stroke-linecap:round;stroke-linejoin:round;stroke-miterlimit:4;stroke-dasharray:none;stroke-dashoffset:0;stroke-opacity:1;paint-order:normal"
       id="path814-5"
       cx="78.472618"
       cy="284.94092"
       r="0.33176786"
       inkscape:export-filename="/home/victor/newcontemporary.png"
       inkscape:export-xdpi="2165.5593"
       inkscape:export-ydpi="2165.5593"
       transform="rotate(15)" />
    <path
       style="opacity:1;fill:#000000;fill-opacity:1;stroke:none;stroke-width:0.0282413;stroke-linecap:round;stroke-linejoin:round;stroke-miterlimit:4;stroke-dasharray:none;stroke-dashoffset:0;stroke-opacity:1;paint-order:normal"
       d="m 2.0720527,295.46189 c -0.044384,-0.0118 -0.08969,0.0143 -0.1015812,0.0587 l -0.083029,0.30986 a 0.33176789,0.33176789 0 0 0 0.077275,0.032 0.33176789,0.33176789 0 0 0 0.4063318,-0.23459 0.33176789,0.33176789 0 0 0 0.011022,-0.083 z"
       id="rect824-9-5"
       inkscape:connector-curvature="0"
       inkscape:export-filename="/home/victor/newcontemporary.png"
       inkscape:export-xdpi="2165.5593"
       inkscape:export-ydpi="2165.5593" />
    <path
       style="fill:url(#linearGradient2515-7);fill-opacity:1;stroke:none;stroke-width:0.264583px;stroke-linecap:butt;stroke-linejoin:miter;stroke-opacity:1"
       d="m 0.26458333,294.35415 v 2.11667 l 0.26458334,-0.26459 0.26458333,0.26459 v -2.11667 z"
       id="path2507-4"
       inkscape:connector-curvature="0"
       sodipodi:nodetypes="cccccc" />
    <path
       d="m 78.482977,285.18976 a 0.23845817,0.23845817 0 0 1 0.238459,-0.23846"
       transform="rotate(15)"
       style="opacity:1;fill:none;fill-opacity:1;stroke:#ffffff;stroke-width:0.020768;stroke-linecap:round;stroke-linejoin:round;stroke-miterlimit:4;stroke-dasharray:none;stroke-dashoffset:0;stroke-opacity:1;paint-order:normal"
       id="path832" />
    <g
       style="font-style:normal;font-variant:normal;font-weight:normal;font-stretch:normal;font-size:0.439813px;line-height:1.25;font-family:Contemporary;-inkscape-font-specification:Contemporary;letter-spacing:0px;word-spacing:0px;fill:#000000;fill-opacity:1;stroke:none;stroke-width:0.0109954"
       id="text2201"
       aria-label="theFrame">
      <path
         id="path2967"
         style="stroke-width:0.0109954"
         d="m 2.5796575,295.68211 q 0,0.005 0.00396,0.008 0.0044,0.003 0.00924,0.003 h 0.016273 q 0.00484,0 0.00836,-0.004 0.00352,-0.004 0.00352,-0.008 l -0.00132,-0.17901 h 0.04618 q 0.00484,0 0.00836,-0.004 0.00352,-0.004 0.00352,-0.008 v -0.0141 q 0,-0.005 -0.00352,-0.008 -0.00352,-0.004 -0.00836,-0.004 h -0.04618 v -0.0717 q 0,-0.005 -0.00352,-0.008 -0.00352,-0.004 -0.00836,-0.004 h -0.016273 q -0.00484,0 -0.00836,0.004 -0.00352,0.004 -0.00352,0.008 v 0.0717 h -0.042222 q -0.00484,0 -0.00836,0.004 -0.00352,0.004 -0.00352,0.008 v 0.0141 q 0,0.005 0.00352,0.008 0.00352,0.004 0.00836,0.004 h 0.042222 z" />
      <path
         id="path2969"
         style="stroke-width:0.0109954"
         d="m 2.9293087,295.68167 q 0,0.005 -0.00352,0.008 -0.00352,0.004 -0.00836,0.004 h -0.016273 q -0.00484,0 -0.00836,-0.004 -0.00352,-0.004 -0.00352,-0.008 v -0.11611 q 0,-0.033 -0.016273,-0.0501 -0.016273,-0.0172 -0.045301,-0.0172 -0.028588,0 -0.045301,0.0172 -0.016273,0.0172 -0.016273,0.0501 v 0.11611 q 0,0.005 -0.00352,0.008 -0.00352,0.004 -0.00836,0.004 H 2.73799 q -0.00484,0 -0.00836,-0.004 -0.00352,-0.004 -0.00352,-0.008 v -0.28852 q 0,-0.005 0.00352,-0.008 0.00352,-0.004 0.00836,-0.004 h 0.016273 q 0.00484,0 0.00836,0.004 0.00352,0.004 0.00352,0.008 v 0.0972 q 0.00968,-0.0128 0.026389,-0.0211 0.017153,-0.009 0.041782,-0.009 0.027708,0 0.049259,0.0119 0.021551,0.0119 0.033426,0.0343 0.012315,0.022 0.012315,0.0523 z" />
      <path
         id="path2971"
         style="stroke-width:0.0109954"
         d="m 3.0832425,295.46044 q 0.04706,0 0.074328,0.0299 0.027268,0.0299 0.027268,0.0814 v 0.0119 q 0,0.005 -0.00352,0.008 -0.00352,0.004 -0.00836,0.004 H 3.0216687 v 0.003 q 8.796e-4,0.029 0.017592,0.0457 0.017153,0.0163 0.043981,0.0163 0.021991,0 0.033866,-0.006 0.012315,-0.006 0.021991,-0.0163 0.00352,-0.004 0.00616,-0.005 0.00308,-0.001 0.00792,-0.001 h 0.013194 q 0.00528,0 0.0088,0.004 0.00352,0.004 0.00308,0.008 -0.00176,0.0119 -0.013194,0.0246 -0.010995,0.0123 -0.032106,0.0211 -0.020671,0.008 -0.049699,0.008 -0.028148,0 -0.050139,-0.0128 -0.021991,-0.0132 -0.035185,-0.0361 -0.012755,-0.0229 -0.015394,-0.0515 -8.796e-4,-0.0132 -8.796e-4,-0.0202 0,-0.007 8.796e-4,-0.0202 0.00264,-0.0273 0.015394,-0.0493 0.013194,-0.022 0.034745,-0.0347 0.021991,-0.0128 0.050578,-0.0128 z m 0.062014,0.0981 v -0.001 q 0,-0.0268 -0.017153,-0.0427 -0.016713,-0.0163 -0.044861,-0.0163 -0.025509,0 -0.043541,0.0163 -0.017593,0.0163 -0.018032,0.0427 v 0.001 z" />
      <path
         id="path2973"
         style="stroke-width:0.0109954"
         d="m 3.429375,295.38567 q 0.00484,0 0.00836,0.004 0.00352,0.004 0.00352,0.008 v 0.0158 q 0,0.005 -0.00352,0.008 -0.00352,0.004 -0.00836,0.004 H 3.2846765 v 0.10159 h 0.1359022 q 0.00484,0 0.00836,0.004 0.00352,0.004 0.00352,0.008 v 0.0158 q 0,0.005 -0.00352,0.008 -0.00352,0.004 -0.00836,0.004 H 3.2846765 v 0.11523 q 0,0.005 -0.00352,0.008 -0.00352,0.004 -0.00836,0.004 h -0.018032 q -0.00484,0 -0.00836,-0.004 -0.00352,-0.004 -0.00352,-0.008 v -0.28412 q 0,-0.005 0.00352,-0.008 0.00352,-0.004 0.00836,-0.004 z" />
      <path
         id="path2975"
         style="stroke-width:0.0109954"
         d="m 3.6009016,295.46484 q 0.00484,0 0.00836,0.004 0.00352,0.004 0.00352,0.008 v 0.0141 q 0,0.005 -0.00352,0.008 -0.00352,0.004 -0.00836,0.004 h -0.025509 q -0.02463,0 -0.037824,0.0132 -0.012754,0.0128 -0.012754,0.0374 v 0.12843 q 0,0.005 -0.00352,0.008 -0.00352,0.004 -0.00836,0.004 h -0.016273 q -0.00484,0 -0.00836,-0.004 -0.00352,-0.004 -0.00352,-0.008 v -0.20496 q 0,-0.005 0.00352,-0.008 0.00352,-0.004 0.00836,-0.004 h 0.016273 q 0.00484,0 0.00836,0.004 0.00352,0.004 0.00352,0.008 v 0.0136 q 0.0088,-0.0132 0.021111,-0.0193 0.012315,-0.006 0.032106,-0.006 z" />
      <path
         id="path2977"
         style="stroke-width:0.0109954"
         d="m 3.7834227,295.54884 v -0.006 q 0,-0.0216 -0.014514,-0.033 -0.014074,-0.0119 -0.036944,-0.0119 -0.017593,0 -0.027708,0.006 -0.00968,0.006 -0.018472,0.0176 -0.00264,0.004 -0.00572,0.005 -0.00308,0.001 -0.00836,0.001 h -0.013194 q -0.00484,0 -0.0088,-0.004 -0.00352,-0.004 -0.00308,-0.008 0.00132,-0.0132 0.012755,-0.026 0.011875,-0.0132 0.031227,-0.0215 0.019352,-0.008 0.041342,-0.008 0.040903,0 0.065972,0.0229 0.025509,0.0229 0.025509,0.0642 v 0.13415 q 0,0.005 -0.00352,0.008 -0.00352,0.004 -0.00836,0.004 h -0.016273 q -0.00484,0 -0.00836,-0.004 -0.00352,-0.004 -0.00352,-0.008 v -0.018 q -0.00704,0.0158 -0.029907,0.0251 -0.02287,0.009 -0.04574,0.009 -0.022431,0 -0.040023,-0.008 -0.017593,-0.008 -0.027268,-0.0224 -0.00924,-0.0141 -0.00924,-0.0317 0,-0.033 0.02463,-0.0515 0.02463,-0.0189 0.065532,-0.0255 z m 0,0.0352 -0.051898,0.008 q -0.028588,0.004 -0.044421,0.0145 -0.015833,0.01 -0.015833,0.0246 0,0.011 0.010116,0.0198 0.010116,0.009 0.030787,0.009 0.031667,0 0.051458,-0.018 0.019792,-0.018 0.019792,-0.0471 z" />
      <path
         id="path2979"
         style="stroke-width:0.0109954"
         d="m 3.9276811,295.49035 q 0.010556,-0.0136 0.02375,-0.0215 0.013194,-0.008 0.035185,-0.008 0.051458,0 0.072129,0.0383 0.012755,-0.0185 0.029028,-0.0282 0.016273,-0.0101 0.042662,-0.0101 0.043102,0 0.063773,0.0259 0.021111,0.026 0.021111,0.0735 v 0.12183 q 0,0.005 -0.00352,0.008 -0.00352,0.004 -0.00836,0.004 h -0.016273 q -0.00484,0 -0.00836,-0.004 -0.00352,-0.004 -0.00352,-0.008 v -0.11743 q 0,-0.066 -0.051898,-0.066 -0.02375,0 -0.037824,0.0158 -0.014074,0.0158 -0.014074,0.0471 v 0.12051 q 0,0.005 -0.00352,0.008 -0.00352,0.004 -0.00836,0.004 H 4.043352 q -0.00484,0 -0.00836,-0.004 -0.00352,-0.004 -0.00352,-0.008 v -0.11743 q 0,-0.066 -0.051898,-0.066 -0.02375,0 -0.037824,0.0158 -0.014074,0.0158 -0.014074,0.0471 v 0.12051 q 0,0.005 -0.00352,0.008 -0.00352,0.004 -0.00836,0.004 h -0.016273 q -0.00484,0 -0.00836,-0.004 -0.00352,-0.004 -0.00352,-0.008 v -0.20496 q 0,-0.005 0.00352,-0.008 0.00352,-0.004 0.00836,-0.004 h 0.016273 q 0.00484,0 0.00836,0.004 0.00352,0.004 0.00352,0.008 z" />
      <path
         id="path2981"
         style="stroke-width:0.0109954"
         d="m 4.3692531,295.46044 q 0.04706,0 0.074328,0.0299 0.027268,0.0299 0.027268,0.0814 v 0.0119 q 0,0.005 -0.00352,0.008 -0.00352,0.004 -0.00836,0.004 H 4.3076793 v 0.003 q 8.796e-4,0.029 0.017593,0.0457 0.017153,0.0163 0.043981,0.0163 0.021991,0 0.033866,-0.006 0.012315,-0.006 0.021991,-0.0163 0.00352,-0.004 0.00616,-0.005 0.00308,-0.001 0.00792,-0.001 h 0.013194 q 0.00528,0 0.0088,0.004 0.00352,0.004 0.00308,0.008 -0.00176,0.0119 -0.013194,0.0246 -0.010995,0.0123 -0.032106,0.0211 -0.020671,0.008 -0.049699,0.008 -0.028148,0 -0.050139,-0.0128 -0.021991,-0.0132 -0.035185,-0.0361 -0.012754,-0.0229 -0.015393,-0.0515 -8.796e-4,-0.0132 -8.796e-4,-0.0202 0,-0.007 8.796e-4,-0.0202 0.00264,-0.0273 0.015393,-0.0493 0.013194,-0.022 0.034745,-0.0347 0.021991,-0.0128 0.050579,-0.0128 z m 0.062014,0.0981 v -0.001 q 0,-0.0268 -0.017153,-0.0427 -0.016713,-0.0163 -0.044861,-0.0163 -0.025509,0 -0.043541,0.0163 -0.017593,0.0163 -0.018032,0.0427 v 0.001 z" />
    </g>
    <g
       style="font-style:normal;font-variant:normal;font-weight:normal;font-stretch:normal;font-size:0.211873px;line-height:1.25;font-family:Contemporary;-inkscape-font-specification:Contemporary;letter-spacing:0px;word-spacing:0px;fill:#000000;fill-opacity:1;stroke:none;stroke-width:0.00529684"
       id="text2230"
       aria-label="Animation Tool">
      <path
         id="path2984"
         style="stroke-width:0.00529684"
         d="m 2.556219,295.98953 -0.011017,0.0282 q -0.00191,0.005 -0.00826,0.005 h -0.00784 q -0.00191,0 -0.00339,-0.001 -0.00127,-0.001 -0.00127,-0.003 0,-0.001 8.475e-4,-0.003 l 0.051909,-0.13369 q 0.00275,-0.007 0.00953,-0.007 h 0.012712 q 0.00678,0 0.00953,0.007 l 0.051697,0.13369 q 8.475e-4,0.002 8.475e-4,0.003 0,0.002 -0.00148,0.003 -0.00127,0.001 -0.00318,0.001 h -0.00784 q -0.00636,0 -0.00826,-0.005 l -0.011017,-0.0282 z m 0.066104,-0.0191 -0.029238,-0.0756 -0.02945,0.0756 z" />
      <path
         id="path2986"
         style="stroke-width:0.00529684"
         d="m 2.7788972,296.01729 q 0,0.002 -0.00169,0.004 -0.0017,0.002 -0.00403,0.002 h -0.00784 q -0.00233,0 -0.00403,-0.002 -0.00169,-0.002 -0.00169,-0.004 v -0.0559 q 0,-0.0159 -0.00784,-0.0242 -0.00784,-0.008 -0.021823,-0.008 -0.013772,0 -0.021823,0.008 -0.00784,0.008 -0.00784,0.0242 v 0.0559 q 0,0.002 -0.0017,0.004 -0.00169,0.002 -0.00403,0.002 h -0.00784 q -0.00233,0 -0.00403,-0.002 -0.0017,-0.002 -0.0017,-0.004 v -0.0987 q 0,-0.002 0.0017,-0.004 0.00169,-0.002 0.00403,-0.002 h 0.00784 q 0.00233,0 0.00403,0.002 0.0017,0.002 0.0017,0.004 v 0.007 q 0.00466,-0.006 0.012712,-0.0102 0.00826,-0.004 0.020128,-0.004 0.013348,0 0.02373,0.006 0.010382,0.006 0.016102,0.0165 0.00593,0.0106 0.00593,0.0252 z" />
      <path
         id="path2988"
         style="stroke-width:0.00529684"
         d="m 2.8310176,295.89228 q 0,0.002 -0.0017,0.004 -0.00169,0.002 -0.00403,0.002 h -0.012077 q -0.00233,0 -0.00403,-0.002 -0.00169,-0.002 -0.00169,-0.004 v -0.0121 q 0,-0.002 0.00169,-0.004 0.00169,-0.002 0.00403,-0.002 h 0.012077 q 0.00233,0 0.00403,0.002 0.0017,0.002 0.0017,0.004 z m -0.00212,0.12501 q 0,0.002 -0.00169,0.004 -0.0017,0.002 -0.00403,0.002 h -0.00784 q -0.00233,0 -0.00403,-0.002 -0.00169,-0.002 -0.00169,-0.004 v -0.0987 q 0,-0.002 0.00169,-0.004 0.0017,-0.002 0.00403,-0.002 h 0.00784 q 0.00233,0 0.00403,0.002 0.00169,0.002 0.00169,0.004 z" />
      <path
         id="path2990"
         style="stroke-width:0.00529684"
         d="m 2.8799601,295.92512 q 0.00508,-0.007 0.011441,-0.0104 0.00636,-0.004 0.01695,-0.004 0.024789,0 0.034747,0.0184 0.00614,-0.009 0.013984,-0.0136 0.00784,-0.005 0.020552,-0.005 0.020764,0 0.030722,0.0125 0.01017,0.0125 0.01017,0.0354 v 0.0587 q 0,0.002 -0.00169,0.004 -0.0017,0.002 -0.00403,0.002 h -0.00784 q -0.00233,0 -0.00403,-0.002 -0.00169,-0.002 -0.00169,-0.004 v -0.0566 q 0,-0.0318 -0.025001,-0.0318 -0.011441,0 -0.018221,0.008 -0.00678,0.008 -0.00678,0.0227 v 0.058 q 0,0.002 -0.00169,0.004 -0.00169,0.002 -0.00403,0.002 h -0.00784 q -0.00233,0 -0.00403,-0.002 -0.00169,-0.002 -0.00169,-0.004 v -0.0566 q 0,-0.0318 -0.025001,-0.0318 -0.011441,0 -0.018221,0.008 -0.00678,0.008 -0.00678,0.0227 v 0.058 q 0,0.002 -0.00169,0.004 -0.0017,0.002 -0.00403,0.002 h -0.00784 q -0.00233,0 -0.00403,-0.002 -0.00169,-0.002 -0.00169,-0.004 v -0.0987 q 0,-0.002 0.00169,-0.004 0.0017,-0.002 0.00403,-0.002 h 0.00784 q 0.00233,0 0.00403,0.002 0.00169,0.002 0.00169,0.004 z" />
      <path
         id="path2992"
         style="stroke-width:0.00529684"
         d="m 3.1147152,295.9533 v -0.003 q 0,-0.0104 -0.00699,-0.0159 -0.00678,-0.006 -0.017797,-0.006 -0.00847,0 -0.013348,0.003 -0.00466,0.003 -0.0089,0.008 -0.00127,0.002 -0.00275,0.002 -0.00148,6.4e-4 -0.00403,6.4e-4 h -0.00636 q -0.00233,0 -0.00424,-0.002 -0.0017,-0.002 -0.00148,-0.004 6.357e-4,-0.006 0.00614,-0.0125 0.00572,-0.006 0.015043,-0.0104 0.00932,-0.004 0.019916,-0.004 0.019704,0 0.031781,0.011 0.012289,0.011 0.012289,0.0309 v 0.0646 q 0,0.002 -0.00169,0.004 -0.0017,0.002 -0.00403,0.002 h -0.00784 q -0.00233,0 -0.00403,-0.002 -0.00169,-0.002 -0.00169,-0.004 v -0.009 q -0.00339,0.008 -0.014407,0.0121 -0.011017,0.004 -0.022035,0.004 -0.010806,0 -0.019281,-0.004 -0.00847,-0.004 -0.013136,-0.0108 -0.00445,-0.007 -0.00445,-0.0153 0,-0.0159 0.011865,-0.0248 0.011865,-0.009 0.031569,-0.0123 z m 0,0.017 -0.025001,0.004 q -0.013772,0.002 -0.021399,0.007 -0.00763,0.005 -0.00763,0.0119 0,0.005 0.00487,0.01 0.00487,0.004 0.014831,0.004 0.015255,0 0.024789,-0.009 0.00953,-0.009 0.00953,-0.0227 z" />
      <path
         id="path2994"
         style="stroke-width:0.00529684"
         d="m 3.1778532,296.0175 q 0,0.002 0.00191,0.004 0.00212,0.001 0.00445,0.001 h 0.00784 q 0.00233,0 0.00403,-0.002 0.0017,-0.002 0.0017,-0.004 l -6.356e-4,-0.0862 h 0.022247 q 0.00233,0 0.00403,-0.002 0.00169,-0.002 0.00169,-0.004 v -0.007 q 0,-0.002 -0.00169,-0.004 -0.00169,-0.002 -0.00403,-0.002 h -0.022247 v -0.0345 q 0,-0.002 -0.00169,-0.004 -0.0017,-0.002 -0.00403,-0.002 h -0.00784 q -0.00233,0 -0.00403,0.002 -0.00169,0.002 -0.00169,0.004 v 0.0345 h -0.02034 q -0.00233,0 -0.00403,0.002 -0.0017,0.002 -0.0017,0.004 v 0.007 q 0,0.002 0.0017,0.004 0.00169,0.002 0.00403,0.002 h 0.02034 z" />
      <path
         id="path2996"
         style="stroke-width:0.00529684"
         d="m 3.2698059,295.89228 q 0,0.002 -0.00169,0.004 -0.0017,0.002 -0.00403,0.002 h -0.012077 q -0.00233,0 -0.00403,-0.002 -0.0017,-0.002 -0.0017,-0.004 v -0.0121 q 0,-0.002 0.0017,-0.004 0.00169,-0.002 0.00403,-0.002 h 0.012077 q 0.00233,0 0.00403,0.002 0.00169,0.002 0.00169,0.004 z m -0.00212,0.12501 q 0,0.002 -0.0017,0.004 -0.00169,0.002 -0.00403,0.002 h -0.00784 q -0.00233,0 -0.00403,-0.002 -0.00169,-0.002 -0.00169,-0.004 v -0.0987 q 0,-0.002 0.00169,-0.004 0.00169,-0.002 0.00403,-0.002 h 0.00784 q 0.00233,0 0.00403,0.002 0.0017,0.002 0.0017,0.004 z" />
      <path
         id="path2998"
         style="stroke-width:0.00529684"
         d="m 3.3948109,295.95797 q 4.237e-4,0.005 4.237e-4,0.0102 0,0.005 -4.237e-4,0.01 -0.00191,0.0216 -0.015043,0.0345 -0.012924,0.0127 -0.035171,0.0127 -0.022247,0 -0.035383,-0.0127 -0.012924,-0.0129 -0.014831,-0.0345 -2.119e-4,-0.002 -2.119e-4,-0.01 0,-0.008 2.119e-4,-0.0102 0.00169,-0.0216 0.014831,-0.0343 0.013136,-0.0129 0.035383,-0.0129 0.022247,0 0.035383,0.0129 0.013136,0.0127 0.014831,0.0343 z m -0.01928,0.001 q -0.00127,-0.0136 -0.00911,-0.0218 -0.00763,-0.008 -0.021823,-0.008 -0.014196,0 -0.022035,0.008 -0.00763,0.008 -0.0089,0.0218 -2.118e-4,0.003 -2.118e-4,0.009 0,0.006 2.118e-4,0.009 0.00127,0.0136 0.0089,0.0218 0.00784,0.008 0.022035,0.008 0.014196,0 0.021823,-0.008 0.00784,-0.008 0.00911,-0.0218 4.238e-4,-0.005 4.238e-4,-0.009 0,-0.004 -4.238e-4,-0.009 z" />
      <path
         id="path3000"
         style="stroke-width:0.00529684"
         d="m 3.519604,296.01729 q 0,0.002 -0.0017,0.004 -0.00169,0.002 -0.00403,0.002 h -0.00784 q -0.00233,0 -0.00403,-0.002 -0.0017,-0.002 -0.0017,-0.004 v -0.0559 q 0,-0.0159 -0.00784,-0.0242 -0.00784,-0.008 -0.021823,-0.008 -0.013772,0 -0.021823,0.008 -0.00784,0.008 -0.00784,0.0242 v 0.0559 q 0,0.002 -0.00169,0.004 -0.0017,0.002 -0.00403,0.002 h -0.00784 q -0.00233,0 -0.00403,-0.002 -0.00169,-0.002 -0.00169,-0.004 v -0.0987 q 0,-0.002 0.00169,-0.004 0.0017,-0.002 0.00403,-0.002 h 0.00784 q 0.00233,0 0.00403,0.002 0.00169,0.002 0.00169,0.004 v 0.007 q 0.00466,-0.006 0.012712,-0.0102 0.00826,-0.004 0.020128,-0.004 0.013348,0 0.02373,0.006 0.010382,0.006 0.016102,0.0165 0.00593,0.0106 0.00593,0.0252 z" />
      <path
         id="path3002"
         style="stroke-width:0.00529684"
         d="m 3.6905849,295.8747 q 0.00233,0 0.00403,0.002 0.00169,0.002 0.00169,0.004 v 0.008 q 0,0.002 -0.00169,0.004 -0.0017,0.002 -0.00403,0.002 h -0.03962 v 0.12352 q 0,0.002 -0.0017,0.004 -0.00169,0.002 -0.00403,0.002 h -0.00869 q -0.00233,0 -0.00403,-0.002 -0.00169,-0.002 -0.00169,-0.004 v -0.12352 h -0.03962 q -0.00233,0 -0.00403,-0.002 -0.00169,-0.002 -0.00169,-0.004 v -0.008 q 0,-0.002 0.00169,-0.004 0.00169,-0.002 0.00403,-0.002 z" />
      <path
         id="path3004"
         style="stroke-width:0.00529684"
         d="m 3.7922833,295.95797 q 4.237e-4,0.005 4.237e-4,0.0102 0,0.005 -4.237e-4,0.01 -0.00191,0.0216 -0.015043,0.0345 -0.012924,0.0127 -0.035171,0.0127 -0.022247,0 -0.035383,-0.0127 -0.012924,-0.0129 -0.014831,-0.0345 -2.119e-4,-0.002 -2.119e-4,-0.01 0,-0.008 2.119e-4,-0.0102 0.00169,-0.0216 0.014831,-0.0343 0.013136,-0.0129 0.035383,-0.0129 0.022247,0 0.035383,0.0129 0.013136,0.0127 0.014831,0.0343 z m -0.01928,0.001 q -0.00127,-0.0136 -0.00911,-0.0218 -0.00763,-0.008 -0.021823,-0.008 -0.014196,0 -0.022035,0.008 -0.00763,0.008 -0.0089,0.0218 -2.119e-4,0.003 -2.119e-4,0.009 0,0.006 2.119e-4,0.009 0.00127,0.0136 0.0089,0.0218 0.00784,0.008 0.022035,0.008 0.014196,0 0.021823,-0.008 0.00784,-0.008 0.00911,-0.0218 4.238e-4,-0.005 4.238e-4,-0.009 0,-0.004 -4.238e-4,-0.009 z" />
      <path
         id="path3006"
         style="stroke-width:0.00529684"
         d="m 3.9145339,295.95797 q 4.238e-4,0.005 4.238e-4,0.0102 0,0.005 -4.238e-4,0.01 -0.00191,0.0216 -0.015043,0.0345 -0.012924,0.0127 -0.035171,0.0127 -0.022247,0 -0.035383,-0.0127 -0.012924,-0.0129 -0.014831,-0.0345 -2.118e-4,-0.002 -2.118e-4,-0.01 0,-0.008 2.118e-4,-0.0102 0.00169,-0.0216 0.014831,-0.0343 0.013136,-0.0129 0.035383,-0.0129 0.022247,0 0.035383,0.0129 0.013136,0.0127 0.014831,0.0343 z m -0.01928,0.001 q -0.00127,-0.0136 -0.00911,-0.0218 -0.00763,-0.008 -0.021823,-0.008 -0.014195,0 -0.022035,0.008 -0.00763,0.008 -0.0089,0.0218 -2.119e-4,0.003 -2.119e-4,0.009 0,0.006 2.119e-4,0.009 0.00127,0.0136 0.0089,0.0218 0.00784,0.008 0.022035,0.008 0.014195,0 0.021823,-0.008 0.00784,-0.008 0.00911,-0.0218 4.237e-4,-0.005 4.237e-4,-0.009 0,-0.004 -4.237e-4,-0.009 z" />
      <path
         id="path3008"
         style="stroke-width:0.00529684"
         d="m 3.9607222,296.01729 q 0,0.002 -0.0017,0.004 -0.00169,0.002 -0.00403,0.002 h -0.00784 q -0.00233,0 -0.00403,-0.002 -0.00169,-0.002 -0.00169,-0.004 v -0.13899 q 0,-0.002 0.00169,-0.004 0.00169,-0.002 0.00403,-0.002 h 0.00784 q 0.00233,0 0.00403,0.002 0.0017,0.002 0.0017,0.004 z" />
    </g>
  </g>
</svg>
